<svg version="1" xmlns="http://www.w3.org/2000/svg" width="341.333" height="341.333" viewBox="0 0 256.000000 256.000000"><path d="M117 27.7c-17.8 2-37.4 10-51 20.8-5.4 4.3-16.9 16.6-20.3 21.8-19.8 29.7-22.2 70.8-6 103.2 11.3 22.7 30 39.1 54.3 47.7 19.4 6.8 46.4 7.5 68.5 1.7 15.5-4 36.1-15.9 45-26.1 7.4-8.4 7.5-6.8-.8-13.1l-7.4-5.5-4.4 4.5c-12.2 12.4-28.3 21.3-45.4 24.9-6.3 1.3-27.1 1.2-34.1-.1-22-4.2-39.2-15.2-52-33.2-9.4-13.1-13.6-26.5-14-45-.5-23.6 6.1-41.9 21-57.9 10.5-11.4 23.2-19 39.4-23.7 11.1-3.1 32.2-3.1 43.9.1 15.7 4.2 27.3 11 38.7 22.7l7 7.3 7.3-5.6 7.2-5.6-2.2-3c-8.7-12.3-27.4-25.2-45-31.1-13.1-4.4-34.9-6.5-49.7-4.8z"/><path d="M119.3 59.1c-1.3.4-2.3.6-2.3.2 0-.3-.6 0-1.3.6-.8.6-1.7.8-2 .5-.3-.4-1.4-.3-2.4.1-1 .5-2.6 1-3.6 1.1-1 .2-3 1.2-4.4 2.1-1.5 1-2.9 1.6-3.1 1.4-.6-.6-15.2 9-15.2 10 0 .5-.7.9-1.5.9s-1.5.7-1.5 1.5-.4 1.5-.9 1.5c-2 0-14.6 18.5-15.6 23-.1.3-.7 2.5-1.4 5s-1.5 5.4-1.8 6.5c-.8 3.1-1.1 25.5-.3 25.5.4 0 .7 1.2.8 2.7.1 2.5 1.2 5.9 5.3 16 .7 1.8 1.7 3.3 2.1 3.3.4 0 .8.5.8 1.1 0 1.2 4.7 7.6 9.4 12.8 8.5 9.3 25.6 18.4 37.1 19.8 5.9.7 8.9 1.1 9.5 1.3.3.2.8.2 1.3.1.4-.1 3.3-.3 6.5-.5 6.7-.5 13.9-2 20.2-4.4 5.6-2 16-8.1 16-9.3 0-.5.6-.9 1.3-.9.8 0 3-1.8 5-4.1 2.1-2.2 3.7-3.7 3.7-3.4 0 .4 2-2.2 4.5-5.9 5.2-7.6 10.1-17.6 11-22.7 1-4.9 1.3-6.4 1.6-6.4.1 0 .3-5.3.4-11.8.1-6.4-.1-11.7-.5-11.7-.3 0-.7-1.4-.8-3.1-.1-1.8-.6-3.7-.9-4.3-.4-.6-.8-1.8-1-2.6-.3-2.2-4.7-11.4-5.5-11.8-.5-.2-.8-.8-.8-1.4 0-1.7-5.2-8.1-11.7-14.5-9.3-9.2-24.4-17-34.4-17.8-1.4-.1-3-.4-3.5-.7-1.5-.9-17.7-.7-20.1.3z"/></svg>